<svg width="52" height="52" viewBox="0 0 52 52" fill="none" xmlns="http://www.w3.org/2000/svg">
<path d="M1.1365e-06 26C5.0955e-07 11.6571 11.6564 -5.09518e-07 26 -1.1365e-06C40.3436 -1.76347e-06 52 11.6564 52 26C52 40.3435 40.3436 52 26 52C11.6559 52 1.76347e-06 40.3436 1.1365e-06 26ZM2.66643 26C2.66643 38.9024 13.0975 49.3333 25.9998 49.3333C38.902 49.3333 49.3331 38.9022 49.3331 26C49.3331 13.0977 38.902 2.66666 25.9997 2.66666C13.0975 2.66666 2.66643 13.0977 2.66643 26ZM8.66619 26C8.66619 25.6917 8.85173 25.282 9.041 25.0834L19.7079 13.7502C20.2059 13.2354 21.023 13.1861 21.6038 13.7088C22.1228 14.1762 22.1256 15.0764 21.6452 15.5838L13.0826 24.6673L41.9993 24.6673C42.7359 24.6673 43.3325 25.2644 43.3325 26.0005C43.3325 26.7371 42.7354 27.3337 41.9993 27.3337L13.0826 27.3337L21.6452 36.4171C22.1251 36.9245 22.1014 37.8233 21.6038 38.3131C21.0784 38.8297 20.1985 38.7735 19.7079 38.2503L9.041 26.9171C8.72757 26.6097 8.67129 26.3135 8.66619 26.0005L8.66619 26Z" fill="#FF6C30"/>
</svg>
