<svg width="28" height="28" viewBox="0 0 28 28" fill="none" xmlns="http://www.w3.org/2000/svg">
    <path d="M0 14C0 6.277 6.277 0 14 0c7.724 0 14 6.277 14 14 0 7.724-6.276 14-14 14S0 21.724 0 14zm1.436 0A12.553 12.553 0 0 0 14 26.564 12.553 12.553 0 0 0 26.564 14 12.553 12.553 0 0 0 14 1.436 12.553 12.553 0 0 0 1.436 14zm3.23 0c0-.166.1-.387.202-.493l5.744-6.103a.726.726 0 0 1 1.02-.022c.28.251.282.736.023 1.01l-4.61 4.89h15.57a.718.718 0 1 1 0 1.436H7.045l4.61 4.891c.259.273.246.757-.022 1.021-.283.278-.757.248-1.021-.034l-5.744-6.102A.637.637 0 0 1 4.666 14z" fill="#6E0F11"/>
</svg>
