<svg width="26" height="20" viewBox="0 0 26 20" fill="none" xmlns="http://www.w3.org/2000/svg">
    <path d="m22.599 11.336 1.967-6.996H6.342l1.967 6.996c.127.45.387.825.73 1.086.345.26.777.41 1.247.41H20.62c.47 0 .901-.149 1.246-.41.344-.26.605-.635.731-1.086zm-1.978 3.95c.646 0 1.231.262 1.654.686a2.33 2.33 0 0 1 .686 1.654c0 .645-.262 1.23-.686 1.654a2.332 2.332 0 0 1-1.654.685 2.334 2.334 0 0 1-1.654-.685 2.334 2.334 0 0 1-.685-1.654c0-.646.262-1.231.685-1.654a2.33 2.33 0 0 1 1.654-.686zm.78 1.56c-.2-.199-.475-.322-.78-.322a1.1 1.1 0 0 0-.779 1.881c.2.2.474.322.78.322a1.1 1.1 0 0 0 .779-1.88zm-11.114-1.56c.645 0 1.23.262 1.654.686.423.423.684 1.008.684 1.654a2.335 2.335 0 0 1-2.338 2.339 2.332 2.332 0 0 1-1.655-.685 2.332 2.332 0 0 1-.685-1.654c0-.646.261-1.231.685-1.654a2.33 2.33 0 0 1 1.655-.686zm.779 1.56c-.2-.199-.475-.322-.78-.322a1.098 1.098 0 0 0-1.1 1.102 1.101 1.101 0 1 0 1.88-.78zM4.92 3.85l-.314-1.115a2.046 2.046 0 0 0-.731-1.087 2.049 2.049 0 0 0-1.246-.41H.619A.618.618 0 1 1 .619 0h2.01c.746 0 1.436.24 1.991.661a3.29 3.29 0 0 1 1.177 1.74l.197.7h19.388v.001a.617.617 0 0 1 .595.785l-2.188 7.782a3.281 3.281 0 0 1-1.177 1.739 3.277 3.277 0 0 1-1.99.662H10.287c-.746 0-1.436-.24-1.99-.662a3.284 3.284 0 0 1-1.177-1.74L4.943 3.928a.615.615 0 0 1-.022-.079v.001z" fill="#E6DCC9"/>
</svg>
