<svg width="39" height="39" viewBox="0 0 39 39" fill="none" xmlns="http://www.w3.org/2000/svg">
    <path d="M39 19.5C39 8.743 30.258 0 19.5 0S0 8.742 0 19.5 8.742 39 19.5 39 39 30.258 39 19.5zm-2 0C37 29.177 29.177 37 19.5 37S2 29.177 2 19.5 9.823 2 19.5 2 37 9.823 37 19.5zm-4.5 0c0-.231-.139-.538-.28-.687l-8-8.5a1.011 1.011 0 0 0-1.423-.031c-.39.35-.391 1.025-.03 1.406l6.421 6.812H7.501a1 1 0 1 0 0 2h21.687l-6.422 6.813c-.36.38-.342 1.055.031 1.422.394.387 1.054.345 1.422-.047l8-8.5c.235-.23.277-.453.281-.688z" fill="#6E0F11"/>
</svg>
