<svg width="39" height="39" viewBox="0 0 39 39" fill="none" xmlns="http://www.w3.org/2000/svg">
    <path d="M0 19.5C0 8.743 8.742 0 19.5 0S39 8.742 39 19.5 30.258 39 19.5 39 0 30.258 0 19.5zm2 0C2 29.177 9.823 37 19.5 37S37 29.177 37 19.5 29.177 2 19.5 2 2 9.823 2 19.5zm4.5 0c0-.231.139-.538.28-.687l8-8.5a1.011 1.011 0 0 1 1.423-.031c.39.35.391 1.025.03 1.406L9.813 18.5H31.5a1 1 0 1 1 0 2H9.812l6.422 6.813c.36.38.342 1.055-.031 1.422-.394.387-1.054.345-1.422-.047l-8-8.5c-.235-.23-.278-.453-.281-.688z" fill="#6E0F11"/>
</svg>
