<svg width="28" height="14" viewBox="0 0 28 14" fill="none" xmlns="http://www.w3.org/2000/svg">
    <path d="M18.947 0H8.12a.706.706 0 0 0-.688.688v9.772c0 .367.322.688.688.688h1.652c.321 1.101 1.284 1.881 2.477 1.881 1.193 0 2.156-.78 2.477-1.881h4.221a.706.706 0 0 0 .688-.688V.688A.705.705 0 0 0 18.947 0zM12.25 11.653c-.642 0-1.193-.55-1.193-1.193 0-.642.55-1.193 1.193-1.193.642 0 1.193.55 1.193 1.193 0 .642-.55 1.193-1.193 1.193zm6.01-1.88H14.68c-.32-1.102-1.284-1.882-2.477-1.882-1.192 0-2.156.78-2.477 1.881h-.964V1.377h9.451v8.395h.046zM3.165 2.66H.688A.706.706 0 0 1 0 1.973c0-.367.321-.688.688-.688h2.477c.367 0 .688.321.688.688a.676.676 0 0 1-.688.688zm1.514 2.89H2.202a.706.706 0 0 1-.688-.688c0-.367.321-.688.688-.688h2.477c.367 0 .688.321.688.688a.705.705 0 0 1-.688.688zm2.156 2.202a.706.706 0 0 1-.688.689H3.67a.706.706 0 0 1-.688-.689c0-.367.321-.688.688-.688h2.477c.367 0 .688.321.688.688zm20.6-1.146L24.59 2.202c-.137-.183-.367-.321-.596-.321h-3.441v1.376h3.074l2.523 3.946v2.615h-.55c-.322-1.101-1.285-1.881-2.478-1.881a2.565 2.565 0 0 0-2.569 2.569 2.565 2.565 0 0 0 2.57 2.569c1.192 0 2.156-.78 2.477-1.881h1.238a.706.706 0 0 0 .688-.688V6.974a.86.86 0 0 0-.091-.368zm-4.313 5.046c-.642 0-1.193-.55-1.193-1.193 0-.642.55-1.193 1.193-1.193.642 0 1.193.55 1.193 1.193 0 .642-.55 1.193-1.193 1.193z" fill="#6E0F11"/>
</svg>
