<svg width="379" height="20" viewBox="0 0 379 20" fill="none" xmlns="http://www.w3.org/2000/svg">
    <path d="M3.158.418H0v19.13h12.561v-2.804H3.158V.418zM34.148.004c-5.77 0-9.563 4.433-9.563 10.014 0 5.582 3.797 9.982 9.567 9.982s9.596-4.466 9.596-9.982c0-5.515-3.793-10.014-9.6-10.014zm0 16.933c-3.76 0-6.311-2.998-6.311-6.919 0-3.92 2.55-6.983 6.311-6.983 3.76 0 6.377 3.03 6.377 6.983 0 3.954-2.584 6.919-6.377 6.919zM70.211 13.939 59.246.418H56.85v19.13h3.157V5.967L71.011 19.55h2.358V.418H70.21v13.52zM95.592 11.421h5.835v.094c0 3.22-2.07 5.45-5.421 5.45-3.826 0-6.283-3.03-6.283-6.95 0-3.921 2.522-7.017 6.377-7.017 3.19 0 4.974 1.882 4.974 1.882l1.85-2.424S100.853 0 96.1 0c-5.897 0-9.629 4.433-9.629 10.01 0 5.578 3.605 9.982 9.535 9.982 5.487 0 8.767-3.7 8.767-9.375V8.735h-9.181v2.686zM129.899 9.826v-.127c1.629-.702 2.678-2.17 2.678-4.08 0-3.347-2.358-5.197-6.602-5.197h-8.386V19.55h8.673c4.208 0 6.885-1.85 6.885-5.45 0-2.202-1.308-3.732-3.252-4.273h.004zm-9.153-6.599h5.196c2.042 0 3.318.89 3.318 2.711 0 1.562-1.308 2.645-3.379 2.645h-5.135V3.227zm5.582 13.517h-5.582v-5.549h5.836c1.817.095 3.252 1.116 3.252 2.744 0 1.784-1.53 2.805-3.506 2.805zM154.738.004c-5.769 0-9.567 4.433-9.567 10.01 0 5.578 3.793 9.982 9.567 9.982 5.775 0 9.597-4.466 9.597-9.982 0-5.515-3.79-10.01-9.597-10.01zm0 16.933c-3.764 0-6.315-2.998-6.315-6.919 0-3.92 2.551-6.983 6.315-6.983 3.765 0 6.377 3.03 6.377 6.983 0 3.954-2.583 6.919-6.377 6.919zM175.116 3.223h5.995v16.326h3.154V3.223h5.996V.418h-15.145v2.805zM201.357 3.223h5.996v16.326h3.158V3.223h5.991V.418h-15.145v2.805zM236.846.004c-5.77 0-9.567 4.433-9.567 10.01 0 5.578 3.793 9.982 9.567 9.982s9.596-4.466 9.596-9.982c0-5.515-3.793-10.01-9.596-10.01zm0 16.933c-3.764 0-6.315-2.998-6.315-6.919 0-3.92 2.551-6.983 6.315-6.983 3.765 0 6.377 3.03 6.377 6.983 0 3.954-2.583 6.919-6.377 6.919zM374.821.512c-2.367 0-4.089 1.788-4.089 4.249 0 2.46 1.755 4.236 4.089 4.236 2.333 0 4.1-1.78 4.1-4.236 0-2.456-1.722-4.249-4.1-4.249zm0 6.131c-.981 0-1.665-.775-1.665-1.882 0-1.107.684-1.907 1.665-1.907.98 0 1.689.783 1.689 1.907s-.693 1.882-1.689 1.882zM275.587.418l-6.823 8.932-6.792-8.932h-2.423v19.13h3.153V6.316l5.487 7.111h1.149l5.515-7.205v13.328h3.125L277.945.418h-2.358zM323.022 10.72l-2.965-.702c-.225 1.403-.639 2.678-1.209 3.732l-3.798-3.76c2.108-1.116 4.052-2.522 4.052-5.356-.004-2.686-2.108-4.63-5.487-4.63s-5.516 2.17-5.516 4.815c0 1.464.607 2.805 1.784 4.014l.414.447c-2.038 1.087-3.826 2.522-3.826 5.168 0 3.059 2.329 5.42 7.111 5.42 2.038 0 3.826-.639 5.29-1.754l1.436 1.435h4.4l-3.732-3.666c1.021-1.468 1.69-3.223 2.038-5.167l.008.004zm-9.407-8.1c1.497 0 2.391.927 2.391 2.326 0 1.398-1.308 2.23-2.965 3.03l-.259-.254c-1.049-1.054-1.529-1.755-1.529-2.776 0-1.403.927-2.325 2.362-2.325zm-.066 14.57c-2.075 0-3.637-1.114-3.637-2.804 0-1.403 1.021-2.264 2.423-3.03l4.561 4.687c-.989.734-2.104 1.148-3.347 1.148zM356.592 3.002c2.904 0 4.56 1.85 4.56 1.85l1.817-2.457s-2.038-2.39-6.442-2.39c-5.869 0-9.662 4.432-9.662 10.01 0 5.577 3.793 9.977 9.662 9.977 4.4 0 6.442-2.424 6.442-2.424l-1.817-2.423s-1.656 1.816-4.56 1.816c-3.793 0-6.442-3.03-6.442-6.95 0-3.921 2.645-7.017 6.442-7.017v.008zM374.771 13.164a1.447 1.447 0 1 0 0 2.894 1.447 1.447 0 0 0 0-2.894z" fill="#E6DCC9"/>
</svg>
