<svg width="113" height="113" viewBox="0 0 113 113" fill="none" xmlns="http://www.w3.org/2000/svg">
    <ellipse cx="56.5" cy="56.5" rx="45.05" ry="46.422" transform="rotate(-15 56.5 56.5)" fill="#FA231D"/>
    <path d="m39.194 56.794 2.034-.545a.208.208 0 0 0 .153-.264l-2.022-7.546c-.023-.087.046-.106.1-.045l2.07 2.37c.08.09.128.134.163.124.035-.009.056-.07.08-.189l.634-3.058c.012-.096.086-.097.11-.01l2.012 7.51a.208.208 0 0 0 .264.153l2.035-.545a.208.208 0 0 0 .152-.264L43.83 42.73a.208.208 0 0 0-.264-.153l-2.017.54c-.104.029-.181.087-.201.223l-.642 3.656c-.016.08-.05.088-.104.028l-2.384-2.846c-.084-.108-.18-.12-.285-.091l-2 .536a.208.208 0 0 0-.152.264l3.15 11.754a.208.208 0 0 0 .264.152zM51.887 53.542c2.12-.568 3.166-2.302 2.607-4.388l-1.491-5.564c-.56-2.086-2.33-3.065-4.452-2.497-2.121.569-3.149 2.298-2.59 4.384l1.491 5.564c.56 2.086 2.314 3.07 4.435 2.501zm-.564-2.104c-.643.173-1.196-.22-1.391-.95l-1.547-5.772c-.196-.73.086-1.346.73-1.519.66-.177 1.213.216 1.408.946l1.547 5.772c.196.73-.086 1.346-.747 1.523zM59.965 51.378c2-.536 3.046-2.196 2.496-4.247-.465-1.739-1.644-2.243-3.806-3.08-1.46-.578-1.967-.87-2.162-1.6-.196-.731.075-1.25.614-1.395.59-.159 1.117.204 1.307.917l.126.469a.208.208 0 0 0 .265.153l2-.536a.208.208 0 0 0 .152-.264l-.112-.418c-.536-2-2.25-2.975-4.302-2.425-1.982.531-2.998 2.164-2.467 4.146.54 2.017 2.24 2.66 3.774 3.237 1.416.553 2.022.8 2.223 1.548.181.678-.115 1.242-.671 1.39-.556.15-1.082-.212-1.278-.943l-.116-.434a.208.208 0 0 0-.265-.153l-2 .536a.208.208 0 0 0-.152.264l.149.557c.503 1.877 2.191 2.823 4.225 2.278zM67.906 36.056l-6.886 1.845a.208.208 0 0 0-.152.265l.452 1.686a.208.208 0 0 0 .264.153l2.087-.559c.052-.014.096.012.11.064l2.618 9.771a.208.208 0 0 0 .265.153l2.034-.545a.208.208 0 0 0 .153-.265l-2.619-9.771c-.014-.052.012-.096.064-.11l2.173-.583a.208.208 0 0 0 .153-.264l-.452-1.687a.208.208 0 0 0-.264-.153zM32.248 64.227l-3.512.941a.208.208 0 0 0-.153.265l3.154 11.77a.208.208 0 0 0 .264.153l2.035-.545a.208.208 0 0 0 .152-.264l-1.239-4.625c-.014-.052.012-.096.064-.11l1.304-.35c1.878-.503 2.77-2.251 2.192-4.407-.587-2.19-2.314-3.35-4.261-2.828zm1.017 5.467-.765.205c-.052.014-.096-.011-.11-.063l-.82-3.06c-.014-.053.012-.097.064-.11l.765-.206c.73-.195 1.393.26 1.672 1.304.275 1.026-.075 1.735-.806 1.93zM43.268 74.487c2.12-.569 3.166-2.302 2.607-4.389l-1.491-5.563c-.559-2.087-2.33-3.066-4.452-2.497-2.121.568-3.149 2.297-2.59 4.383l1.491 5.564c.56 2.087 2.314 3.07 4.435 2.502zm-.564-2.104c-.643.172-1.196-.22-1.391-.95l-1.547-5.773c-.196-.73.087-1.346.73-1.518.66-.177 1.213.215 1.408.945l1.547 5.773c.196.73-.086 1.346-.747 1.523zM48.548 59.86l-3.512.94a.208.208 0 0 0-.153.265l3.154 11.771a.208.208 0 0 0 .264.153l2.035-.545a.208.208 0 0 0 .152-.265l-1.239-4.625c-.014-.052.012-.096.064-.11l1.304-.35c1.878-.502 2.77-2.25 2.192-4.407-.587-2.19-2.314-3.349-4.261-2.827zm1.017 5.467-.765.205c-.052.014-.096-.012-.11-.064l-.82-3.06c-.014-.052.012-.096.064-.11l.765-.205c.73-.196 1.393.26 1.672 1.303.275 1.026-.075 1.735-.806 1.93zM59.637 70.1c2.07-.554 3.06-2.348 2.478-4.52l-2.278-8.503a.208.208 0 0 0-.264-.153l-2.034.545a.208.208 0 0 0-.153.265l2.343 8.745c.2.748-.064 1.36-.655 1.518-.609.163-1.144-.234-1.344-.982l-2.344-8.745a.208.208 0 0 0-.264-.153l-2.034.545a.208.208 0 0 0-.153.264l2.278 8.503c.582 2.173 2.338 3.23 4.424 2.671zM64.72 68.59l5.982-1.603a.208.208 0 0 0 .152-.265l-.451-1.686a.208.208 0 0 0-.265-.153l-3.651.978c-.052.014-.096-.011-.11-.063l-2.619-9.772a.208.208 0 0 0-.264-.152l-2.035.545a.208.208 0 0 0-.152.264l3.15 11.754a.208.208 0 0 0 .264.152zM77.472 65.173l2.086-.56c.14-.037.19-.125.113-.272l-5.687-11.073c-.05-.117-.156-.163-.278-.13l-2.347.628c-.121.033-.19.126-.175.252l.594 12.438c.007.166.095.217.234.18l2.035-.545c.121-.033.194-.109.174-.252l-.139-1.77c-.014-.053.034-.084.086-.098l2.173-.582c.053-.015.114.006.128.058l.726 1.595c.054.135.155.163.277.13zm-3.557-3.259-.385-4.705c0-.074.069-.092.105-.028l1.932 4.29c.014.053.006.092-.046.106l-1.496.4c-.052.015-.109.011-.11-.063zM85.696 62.97l2.086-.56c.14-.037.18-.16.109-.29l-2.974-4.7c-.027-.03-.023-.087.024-.119.763-.838 1.03-2.065.663-3.438-.578-2.156-2.305-3.315-4.252-2.793l-3.512.941a.208.208 0 0 0-.153.264l3.154 11.771a.208.208 0 0 0 .265.153l2.034-.545a.208.208 0 0 0 .153-.265l-1.272-4.746c-.014-.052.011-.096.063-.11l.591-.159c.053-.014.08.016.106.046l2.625 4.44a.254.254 0 0 0 .29.11zm-4.958-9.462.782-.21c.713-.19 1.371.248 1.641 1.256.261.974-.09 1.683-.802 1.874l-.782.21c-.053.014-.097-.012-.11-.064l-.793-2.956c-.014-.052.012-.096.064-.11z" fill="#F2EEE5"/>
</svg>
