<svg width="201" height="202" viewBox="0 0 201 202" fill="none" xmlns="http://www.w3.org/2000/svg">
    <circle cx="100.429" cy="101" r="82" transform="rotate(-15 100.429 101)" fill="#FA231D"/>
    <path d="m85.388 102.361 2.55-.683c.17-.045.22-.196.133-.354l-3.635-5.745c-.033-.037-.029-.107.03-.145.932-1.024 1.26-2.524.81-4.203-.707-2.635-2.817-4.05-5.197-3.413l-4.293 1.15a.254.254 0 0 0-.186.323l3.854 14.387c.04.149.175.226.324.187l2.486-.667a.254.254 0 0 0 .187-.323l-1.555-5.801c-.017-.064.014-.118.078-.135l.722-.194c.064-.017.097.02.13.057l3.207 5.427a.31.31 0 0 0 .355.132zm-6.06-11.563.957-.257c.87-.233 1.675.303 2.005 1.536.32 1.19-.11 2.056-.98 2.29l-.957.256c-.063.017-.117-.014-.134-.078l-.968-3.613c-.017-.063.014-.117.077-.134zM93.959 86.604l-.552-2.061a.254.254 0 0 0-.324-.187l-7.288 1.953a.254.254 0 0 0-.187.323l3.849 14.366c.04.149.175.226.323.186l7.29-1.953a.254.254 0 0 0 .186-.323l-.552-2.061a.254.254 0 0 0-.324-.187l-4.441 1.19c-.064.017-.118-.014-.135-.078l-.905-3.379c-.017-.063.014-.117.078-.134l2.55-.683a.254.254 0 0 0 .186-.324l-.552-2.061a.254.254 0 0 0-.323-.187l-2.55.683c-.064.018-.118-.013-.135-.077l-.9-3.358c-.017-.064.014-.117.078-.134l4.441-1.19a.254.254 0 0 0 .187-.324zM105.614 96.942l2.55-.683c.17-.046.232-.154.139-.334l-6.952-13.534c-.061-.143-.19-.2-.339-.16l-2.869.77c-.149.04-.232.153-.213.307l.725 15.202c.009.203.116.265.286.22l2.487-.666c.148-.04.238-.133.213-.308l-.17-2.164c-.017-.064.041-.102.105-.12l2.656-.71c.064-.018.139.007.156.071l.887 1.95c.067.163.19.199.339.159zm-4.347-3.983-.47-5.75c-.002-.09.083-.114.127-.034l2.362 5.243c.017.064.007.112-.057.13l-1.827.489c-.064.017-.133.013-.135-.078zM110.055 95.752l7.31-1.959a.254.254 0 0 0 .187-.323L117 91.408a.255.255 0 0 0-.324-.186l-4.462 1.196c-.064.016-.118-.015-.135-.078l-3.2-11.943a.254.254 0 0 0-.323-.187l-2.486.666a.254.254 0 0 0-.187.324l3.849 14.365c.04.149.175.227.323.187zM57.415 132.633l2.486-.666a.255.255 0 0 0 .187-.324l-3.85-14.365a.255.255 0 0 0-.323-.187l-2.486.667a.253.253 0 0 0-.187.323l3.85 14.365c.04.149.174.227.323.187zM62.333 131.315l2.444-.655a.254.254 0 0 0 .187-.323l-2.145-7.921c-.023-.085.083-.113.127-.034l4.877 7.234c.077.116.184.179.333.139l2.699-.723a.255.255 0 0 0 .186-.324l-3.849-14.365a.254.254 0 0 0-.323-.187l-2.444.655a.254.254 0 0 0-.186.323l2.112 7.884c.023.085-.078.135-.122.056l-4.87-7.213c-.077-.116-.185-.179-.334-.139l-2.677.718a.253.253 0 0 0-.187.323l3.849 14.365c.04.149.175.227.323.187zM77.035 127.558c2.529-.678 3.828-2.711 3.174-5.155l-1.054-3.932a.254.254 0 0 0-.323-.186l-3.783 1.013a.255.255 0 0 0-.186.324l.506 1.891c.04.149.175.226.324.187l.935-.251c.064-.017.117.014.135.078l.455 1.7c.228.85-.107 1.555-.872 1.76-.744.199-1.386-.244-1.614-1.094l-1.936-7.225c-.228-.85.107-1.555.85-1.754.766-.205 1.408.238 1.636 1.088l.228.85c.04.149.174.226.323.186l2.486-.666a.254.254 0 0 0 .187-.323l-.216-.808c-.66-2.465-2.803-3.576-5.332-2.898-2.55.683-3.808 2.705-3.153 5.149l1.925 7.183c.654 2.443 2.755 3.566 5.305 2.883zM88.695 124.251l2.55-.683c.17-.046.221-.196.133-.354l-3.635-5.746c-.032-.036-.028-.106.03-.144.933-1.024 1.26-2.524.81-4.203-.706-2.635-2.817-4.051-5.197-3.413l-4.292 1.15a.254.254 0 0 0-.187.323l3.855 14.387c.04.149.174.226.323.186l2.487-.666a.254.254 0 0 0 .186-.323l-1.554-5.801c-.017-.064.014-.118.078-.135l.722-.194c.064-.017.096.02.129.057l3.208 5.426a.31.31 0 0 0 .354.133zm-6.06-11.564.957-.256c.871-.233 1.676.303 2.006 1.535.319 1.19-.11 2.057-.98 2.29l-.957.257c-.064.017-.118-.014-.135-.078l-.968-3.613c-.017-.064.014-.117.078-.135zM97.266 108.494l-.552-2.061a.254.254 0 0 0-.323-.187l-7.289 1.953a.254.254 0 0 0-.187.323l3.85 14.366c.04.148.174.226.323.186l7.289-1.953a.254.254 0 0 0 .186-.323l-.552-2.061a.254.254 0 0 0-.323-.187l-4.442 1.19c-.063.017-.117-.014-.134-.078l-.906-3.379c-.017-.063.014-.117.078-.134l2.55-.684a.253.253 0 0 0 .187-.323l-.552-2.061a.254.254 0 0 0-.324-.187l-2.55.683c-.064.017-.117-.014-.135-.077l-.9-3.358c-.016-.064.015-.118.078-.135l4.442-1.19a.254.254 0 0 0 .186-.323zM102.406 120.578l3.846-1.031c2.592-.695 3.833-2.781 3.167-5.267l-1.777-6.63c-.666-2.487-2.783-3.673-5.376-2.978l-3.846 1.03a.255.255 0 0 0-.187.324l3.849 14.365c.04.149.175.226.324.187zm2.023-3.413-2.55-9.52c-.018-.063.014-.117.077-.134l.935-.251c.829-.222 1.521.321 1.806 1.384l1.674 6.247c.258 1.047-.097 1.849-.856 2.075l-.951.277c-.064.017-.117-.014-.135-.078zM112.512 117.87l2.486-.667a.253.253 0 0 0 .187-.323l-3.849-14.365a.255.255 0 0 0-.324-.187l-2.486.666a.255.255 0 0 0-.187.324l3.85 14.365a.254.254 0 0 0 .323.187zM121.588 101.977l-.552-2.061a.254.254 0 0 0-.323-.187l-7.289 1.953a.254.254 0 0 0-.187.323l3.849 14.366c.04.148.175.226.324.186l7.288-1.953a.254.254 0 0 0 .187-.323l-.552-2.061a.255.255 0 0 0-.324-.187l-4.441 1.19c-.064.017-.118-.014-.135-.078l-.905-3.379c-.017-.063.014-.117.078-.134l2.55-.684a.254.254 0 0 0 .187-.323l-.553-2.061a.254.254 0 0 0-.323-.187l-2.55.683c-.064.017-.118-.014-.135-.077l-.9-3.358c-.017-.064.014-.118.078-.135l4.442-1.19a.254.254 0 0 0 .186-.323zM126.749 114.055l2.443-.655a.254.254 0 0 0 .187-.323l-2.145-7.921c-.023-.085.083-.113.127-.034l4.877 7.234c.077.116.184.179.333.139l2.699-.723a.255.255 0 0 0 .187-.324l-3.85-14.365a.253.253 0 0 0-.323-.187l-2.444.655a.254.254 0 0 0-.186.323l2.112 7.884c.023.085-.078.135-.122.056l-4.871-7.213c-.076-.116-.184-.179-.333-.139l-2.677.718a.254.254 0 0 0-.187.323l3.849 14.365c.04.149.175.227.324.187zM141.647 94.12l-8.415 2.254a.254.254 0 0 0-.186.324l.552 2.061c.04.149.174.227.323.187l2.55-.684c.064-.017.118.014.135.078l3.2 11.943c.04.149.175.226.323.187l2.487-.667a.254.254 0 0 0 .186-.323l-3.2-11.943c-.017-.064.014-.117.078-.134l2.656-.712a.254.254 0 0 0 .187-.323l-.552-2.062a.255.255 0 0 0-.324-.186zM151.284 107.663c2.444-.655 3.722-2.683 3.051-5.191-.57-2.125-2.01-2.74-4.653-3.764-1.784-.706-2.404-1.064-2.643-1.956-.239-.893.092-1.528.751-1.705.722-.193 1.365.25 1.598 1.12l.154.575c.04.148.175.226.323.186l2.444-.655a.254.254 0 0 0 .187-.323l-.137-.51c-.655-2.444-2.751-3.636-5.258-2.964-2.423.65-3.665 2.645-3.015 5.067.66 2.465 2.739 3.252 4.613 3.957 1.73.675 2.471.978 2.716 1.891.222.829-.14 1.518-.82 1.701-.68.182-1.322-.261-1.562-1.154l-.142-.531a.254.254 0 0 0-.323-.186l-2.444.654a.255.255 0 0 0-.187.324l.182.68c.615 2.295 2.679 3.45 5.165 2.784z" fill="#F2EEE5"/>
</svg>
