<svg width="210" height="34" viewBox="0 0 210 34" fill="none" xmlns="http://www.w3.org/2000/svg">
    <g clip-path="url(#8dm9smcjda)">
        <path d="M33.795 29.677c1.417-.923 2.784-1.991 2.784-4.128V12.143L34.43 9.909l-.83.825 1.856 1.943V25.5c0 1.797-.635 3.108-1.758 3.983l.097.194zM25.542 1.311v.146c.635.243 1.367.874 1.367 2.089v19.768l-.781.777 2.979 2.526.879-.729-2.393-1.942.44-.389V3.74c0-1.554-1.417-2.331-2.491-2.429zm1.807 29.726c3.81-.291 7.57-1.554 7.57-5.586V12.823l-1.71-1.7-1.904 1.846v9.471l1.562 1.409-3.613 3.205h-.342l-3.517-3.011.977-.923V3.789c0-1.458-1.22-2.235-2.002-2.38v-.34c.342-.195.879-.292 1.563-.292 1.22 0 2.344.729 2.686 1.506h.097C29.45 1.214 30.621.777 31.744.729c.342 0 .733.048 1.123.145v.389c-.634.194-1.562.971-1.562 2.866v8.014l4.688-4.469h.342c.342.34 2.393 2.186 2.784 2.429.195.097.44.194.635.194.39 0 .634-.146.976-.291v.485c-.39.34-.83.972-.83 1.749v10.929c0 4.857-5.323 7.771-12.551 8.305v-.437zm21.635-21.08-.928.68a187.236 187.236 0 0 0 3.858 4.42l.977-.68c-1.417-1.506-2.784-3.157-3.907-4.42zm-1.123 7.771 3.516-2.38c-1.221-1.408-2.491-2.817-3.517-3.982v6.363zm2.295 8.063c-2.1-.971-4.005-1.7-5.714-2.622.097-.632.146-1.36.146-3.4V11.85l-1.123.583v7.383c0 2.04-.049 3.352-.195 3.934 1.66.923 4.004 1.895 6.153 2.817l.733-.777zm-7.277-13.697c2.1-1.02 5.226-2.865 7.326-4.371h.39c1.368 1.408 3.37 3.691 5.08 5.197v.389L47.86 18.36v3.108c.83.486 3.076 1.652 4.444 2.09l3.125-3.012.39.388-6.3 6.072h-.39c-2.1-.923-4.884-2.089-6.642-3.06.196-.632.391-2.283.391-4.275v-7.577zM202.821 29.63c1.416-.923 2.784-1.992 2.784-4.129V12.094l-2.149-2.234-.83.826 1.855 1.943V25.45c0 1.797-.683 3.109-1.758 3.983 0 .049.098.194.098.194zm-8.205-28.366-.049.146c.635.242 1.417.874 1.417 2.088v19.72l-.782.777 2.979 2.526.879-.729-2.393-1.942.44-.389V3.691c-.049-1.554-1.465-2.331-2.491-2.428zm1.758 29.725c3.81-.29 7.57-1.554 7.57-5.585V12.774l-1.709-1.748-1.905 1.845v9.472l1.563 1.408-3.614 3.206h-.342l-3.565-3.011.977-.923V3.74c0-1.457-1.221-2.234-2.002-2.38v-.34c.341-.194.879-.291 1.562-.291 1.221 0 2.344.728 2.686 1.505h.098c.733-1.068 1.905-1.505 3.028-1.554.342 0 .732.049 1.123.146v.388c-.635.195-1.514.972-1.514 2.866v8.063l4.689-4.469h.341c.342.34 2.393 2.186 2.784 2.429.196.097.44.194.684.194.391 0 .684-.146.977-.291v.68c-.391.34-.831.971-.831 1.748v10.783c0 4.857-5.323 7.771-12.551 8.306l-.049-.535zM95.233 9.958l-.928.68a187.217 187.217 0 0 0 3.858 4.42l.977-.68c-1.368-1.507-2.784-3.207-3.907-4.42zm-1.026 7.722 3.516-2.38c-1.22-1.409-2.49-2.817-3.516-3.983v6.363zm2.247 8.063c-2.1-.972-4.005-1.7-5.714-2.623.097-.632.146-1.36.146-3.4v-7.917l-1.123.583v7.383c0 2.04-.049 3.351-.196 3.934 1.66.923 4.005 1.894 6.154 2.817l.733-.777zm-7.228-13.697c2.1-1.02 5.225-2.866 7.325-4.372h.39c1.368 1.409 3.371 3.692 5.08 5.197v.389l-7.814 5.051v3.109c.781.486 3.077 1.651 4.444 2.088l3.126-3.01.39.388-6.3 6.071h-.39c-2.15-.923-4.884-2.088-6.642-3.06.195-.631.39-2.234.39-4.274v-7.577zm19.339 13.648c-1.416-.388-2.832-1.311-2.832-3.254V4.76l-1.563-1.603-.83.826 1.269 1.311v17.583c0 1.992 1.612 3.254 3.126 3.643l.83-.826zm.488-22.44v18.7c0 .777.782 1.555 1.514 1.7l1.124-1.117.342.389-4.005 4.08h-.195c-1.514-.34-3.712-1.7-3.712-4.032V5.586l-1.123-1.117-1.172 1.165-.342-.388 4.493-4.517h.293l2.783 2.525zm10.794 6.703-.928.68a185.144 185.144 0 0 0 3.858 4.42l.976-.68c-1.367-1.554-2.783-3.206-3.906-4.42zm-1.075 7.723 3.516-2.38c-1.221-1.409-2.49-2.817-3.516-3.983v6.363zm2.247 8.063c-2.1-.972-4.005-1.7-5.714-2.623.097-.632.146-1.36.146-3.4v-7.917l-1.123.583v7.383c0 2.04-.049 3.351-.195 3.934 1.66.923 4.004 1.894 6.153 2.817l.733-.777zm-7.228-13.697c2.1-1.02 5.225-2.866 7.325-4.372h.391c1.367 1.409 3.37 3.692 5.079 5.197v.389l-7.765 5.051v3.109c.781.486 3.077 1.651 4.444 2.088l3.126-3.01.39.388-6.348 6.071h-.391c-2.1-.923-4.884-2.088-6.642-3.06.195-.631.391-2.234.391-4.274v-7.577zm39.509-.875c.635.583 1.514 1.409 2.247 2.04l.732-.825c-.684-.632-1.758-1.506-2.246-2.04-.049-.049-.733.825-.733.825zm-1.905 14.523c-1.465-.388-2.832-1.311-2.832-3.254V11.754l-1.514-1.554-.879.826 1.27 1.311v10.589c0 1.991 1.611 3.254 3.125 3.643l.83-.875zm.44-12.871v9.18c0 .825.732 1.506 1.514 1.651l1.123-1.068.342.388-4.005 4.08h-.244c-1.514-.34-3.663-1.7-3.663-4.031V12.53l-1.123-1.117-1.172 1.166-.391-.389 4.493-4.517h.342l2.833 2.769v1.505l3.614-4.274h.342c.732.729 1.855 1.797 2.832 2.526v.049l-3.028 3.594h-.049c-.83-.729-1.953-1.749-2.588-2.38-.098.048-1.172 1.36-1.172 1.36zm15.53 9.86V17c-1.123-.291-2.295-.777-3.418-1.312v7.043l2.002 1.215 1.416-1.263zm4.542 3.06c-1.367-.486-2.833-1.506-2.833-3.4v-9.86l-5.421-2.72c-.146.097-.781.534-.976.68l5.225 2.72v9.568c0 1.846 1.71 3.255 3.126 3.789l.879-.777zm-4.542-9.326v-2.963l-5.128-2.671c-.39.291-1.758 1.117-2.197 1.36 1.22 1.603 4.395 3.545 7.325 4.274zm-3.077 9.229-3.614-2.38V17.97l-1.074.826v5.149l3.858 2.574c0-.049.83-.874.83-.874zm-.928 1.36-4.346-2.866v-5.634c1.074-.777 3.37-2.332 4.444-3.109-1.709-.923-3.174-2.04-4.053-3.108V11.9c2.588-1.457 4.444-2.817 6.007-4.226h.341s5.324 2.526 5.617 2.623c.293.146.488.243.781.243.391 0 .684-.097 1.075-.291v.582a2.017 2.017 0 0 0-.831 1.652v9.471c0 .972.879 1.652 1.514 1.797l1.124-1.117.341.389-4.004 4.08h-.244c-1.563-.437-3.321-1.943-3.614-3.692l-3.859 3.74c-.048-.097-.293-.097-.293-.145zm-26.372-4.323V12.87l-3.614-1.554v11.171l2.247 1.506 1.367-1.311zm1.71-10.929-5.324-2.234v1.166l4.152 1.797v10.783c0 2.331 1.025 4.857 2.588 6.8l.83-.826c-1.367-1.797-2.295-3.789-2.295-6.12l.049-11.366zm-5.714 14.717.879-.777-3.81-2.428v-11.56l-1.074.777V23.8l4.005 2.671zm-1.514 4.566c-1.417 0-2.637.632-3.37 1.603v.194c.83-.486 1.807-.777 3.37-.777 1.856 0 4.249.534 5.616 1.263l.733-.874c-1.612-.777-3.907-1.409-6.349-1.409zm-3.077-6.994v-11.9l6.349-4.42h.391c1.221.534 5.323 2.234 5.811 2.477.196.049.44.146.684.146.391 0 .781-.146 1.221-.34v.68c-.391.34-.879 1.068-.879 1.651V22.44c0 2.38.488 3.74 1.465 4.711v.389c-1.416 1.409-4.64 4.711-6.056 6.46h-.244c-1.368-.777-3.712-1.36-5.616-1.36-1.417 0-2.979.389-4.2 1.311l-.293-.242c1.074-2.526 3.418-5.1 6.397-5.1 1.856 0 4.298.777 6.349 1.894-1.416-1.603-2.686-4.566-2.735-7.043l-3.76 3.594h-.293l-4.591-3.011zm56.749-13.212 1.953 1.895V23.12l1.124-.632V12.143l-2.198-2.186-.879.874zm.781 15.98c.196-.291.586-.68.782-.922l-3.858-.826v1.068l3.076.68zm.586-3.691V12.871l-1.709-1.748-1.905 1.797v9.471c.831.195 3.175.632 3.614.729zm-8.009 7.043-.781.728 2.881 2.477.879-.777-2.246-1.894.39-.389V11.851l-1.611-1.603-.782.778 1.27 1.311v17.826zm4.347-18.02 4.688-4.42h.342c.342.34 2.49 2.234 2.832 2.477.196.097.44.146.635.146.391 0 .684-.146.977-.292v.632c-.391.291-.83.971-.83 1.748V23.85c-2.003.485-3.614 1.554-5.324 3.545h-.146l-3.126-.631v2.525l1.612 1.458-3.809 3.157h-.196l-3.565-3.012.977-1.02v-4.225c-.391-.098-1.123-.195-1.465-.292v-.534c.439-.194 1.563-1.263 1.563-2.186V12.58l-1.124-1.117-1.172 1.166-.39-.389 4.493-4.517h.341l2.833 2.768-.146 1.652zM11.184 17.68l-.05-4.954-1.122.777v4.614c0 .486-.098.923-.245 1.263h.147c.684-.437 1.27-1.117 1.27-1.7zM5.42 9.909c-1.612 1.602-3.126 3.837-3.126 6.654 0 6.703 4.542 10.103 10.305 10.103 3.565 0 6.105-1.943 7.57-3.4l-.098-.146c-1.66 1.36-3.956 2.428-7.472 2.428-4.64 0-9.133-2.817-9.133-9.034 0-2.428.928-4.857 2.1-6.508l-.146-.097zm12.356-2.623c-4.298 0-8.205-2.089-11.33-2.089-2.003 0-4.347.826-5.177 3.157l.146.049c.928-1.603 3.126-2.137 5.03-2.137 3.126 0 7.033 2.137 11.33 2.137 3.468 0 5.47-1.166 5.812-3.934l-.195-.049c-.488 2.089-2.149 2.866-5.616 2.866zM1.709 16.563c0-4.566 3.468-7.723 6.691-9.132l.244.292c-1.172 1.36-2.002 2.671-2.002 5.44 0 3.157.83 5.343 2.149 6.8.44-.486.683-1.263.683-1.943v-4.711l5.812-4.129.244.34c-.488.729-.781 1.409-.781 2.526v3.011c0 2.089-3.468 4.371-5.616 5.246 1.416 1.36 3.418 1.943 5.616 1.943.781 0 1.514-.049 2.149-.146V8.84c-1.905-.097-3.712-.631-5.372-1.069C9.767 7.237 7.96 6.8 6.446 6.8c-2.344 0-5.176.777-5.225 4.177 0 .291.049.631.098.971l-.44.146C.49 11.026.244 10.006.244 8.986.195 4.906 3.224 1.31 8.107 1.31c2.051 0 4.005.486 5.665.972 1.807.534 3.614.971 5.47.971.928 0 1.465-.485 1.465-1.36 0-.874-.488-1.263-1.172-1.457L19.633 0c2.1.389 4.395 1.603 4.395 4.226 0 3.157-2.295 4.663-6.202 4.663h-.391v13.114c2.54-.486 4.249-1.652 5.518-3.692l.391.243c-1.416 4.469-4.737 8.743-10.695 8.743-6.007-.049-10.94-3.546-10.94-10.734zm73.158 1.117-.048-4.954-1.124.777v4.614c0 .486-.097.923-.244 1.263h.147c.732-.437 1.27-1.117 1.27-1.7zm-5.714-7.771c-1.611 1.602-3.125 3.837-3.125 6.654 0 6.751 4.542 10.103 10.305 10.103 3.565 0 6.104-1.943 7.52-3.4l-.097-.146c-1.66 1.36-3.956 2.428-7.423 2.428-4.64 0-9.133-2.817-9.133-9.034 0-2.477.88-4.905 2.051-6.557l-.098-.048zM81.51 7.286c-4.297 0-8.204-2.089-11.33-2.089-2.002 0-4.346.826-5.177 3.157l.147.049c.928-1.603 3.125-2.137 5.03-2.137 3.126 0 7.033 2.137 11.33 2.137 3.468 0 5.47-1.166 5.812-3.934l-.195-.049c-.489 2.089-2.15 2.866-5.617 2.866zm-16.067 9.277c0-4.566 3.467-7.723 6.69-9.132l.196.292c-1.172 1.36-2.002 2.671-2.002 5.44 0 3.157.83 5.343 2.148 6.8.44-.486.684-1.263.684-1.943v-4.711L78.97 9.18l.244.34c-.537.729-.781 1.409-.781 2.526v3.011c0 2.089-3.468 4.371-5.617 5.246 1.417 1.36 3.419 1.943 5.617 1.943.781 0 1.513-.049 2.148-.146V8.84c-1.904-.097-3.711-.631-5.323-1.069C73.5 7.237 71.693 6.8 70.18 6.8c-2.344 0-5.177.777-5.225 4.177 0 .291.048.631.048.971l-.44.146c-.39-1.068-.634-2.088-.634-3.108-.049-4.129 2.979-7.723 7.863-7.723 2.05 0 4.004.486 5.665.971 1.807.486 3.614.972 5.47.972.927 0 1.465-.486 1.465-1.36 0-.875-.44-1.312-1.124-1.506l.05-.437c2.1.388 4.395 1.603 4.395 4.226 0 3.157-2.296 4.662-6.154 4.662h-.39v13.115c2.539-.486 4.248-1.652 5.518-3.692l.39.243C85.662 22.926 82.34 27.2 76.382 27.2c-6.007.049-10.94-3.449-10.94-10.637z" fill="#6E0F11"/>
    </g>
    <defs>
        <clipPath id="8dm9smcjda">
            <path fill="#fff" d="M0 0h210v34H0z"/>
        </clipPath>
    </defs>
</svg>
