<svg width="73" height="73" viewBox="0 0 73 73" fill="none" xmlns="http://www.w3.org/2000/svg">
    <path fill-rule="evenodd" clip-rule="evenodd" d="M36.155 70.721c19.09 0 34.566-15.476 34.566-34.566 0-19.09-15.476-34.566-34.566-34.566-19.09 0-34.566 15.476-34.566 34.566 0 19.09 15.476 34.566 34.566 34.566zm0 1.59c19.968 0 36.156-16.188 36.156-36.156S56.123 0 36.155 0 0 16.187 0 36.155s16.187 36.156 36.155 36.156z" fill="#FA231D"/>
    <path d="M17.736 42.377h2.255c.123 0 .21-.07.227-.192l2.518-11.818c.035-.157-.035-.227-.175-.227h-2.185c-.123 0-.21.052-.228.192l-1.17 7.692c-.018.087-.088.087-.106 0l-1.206-7.692c-.017-.14-.105-.192-.227-.192h-2.255c-.14 0-.21.07-.175.227l2.5 11.818c.017.122.105.192.227.192zM30.328 32.045V30.35a.202.202 0 0 0-.21-.21h-5.996a.202.202 0 0 0-.21.21v11.817c0 .123.087.21.21.21h5.996c.122 0 .21-.087.21-.21v-1.696a.202.202 0 0 0-.21-.21h-3.654c-.052 0-.087-.034-.087-.087v-2.78c0-.052.035-.087.087-.087h2.098c.122 0 .21-.087.21-.21v-1.695a.202.202 0 0 0-.21-.21h-2.098c-.052 0-.087-.035-.087-.087v-2.762c0-.053.035-.088.087-.088h3.654c.122 0 .21-.087.21-.21zM34.881 42.517c2.08 0 3.497-1.294 3.497-3.304v-3.234a.202.202 0 0 0-.21-.21h-3.112a.202.202 0 0 0-.21.21v1.556c0 .122.088.21.21.21h.77c.052 0 .087.034.087.087v1.398c0 .7-.402 1.172-1.032 1.172-.611 0-1.014-.472-1.014-1.172v-5.943c0-.7.403-1.172 1.014-1.172.63 0 1.032.472 1.032 1.172v.699c0 .122.087.21.21.21h2.045c.122 0 .21-.088.21-.21v-.664c0-2.028-1.416-3.322-3.497-3.322-2.098 0-3.479 1.294-3.479 3.304v5.909c0 2.01 1.381 3.304 3.48 3.304zM44.813 42.377h2.097c.14 0 .21-.07.175-.227l-2.552-11.818c-.017-.122-.105-.192-.227-.192h-2.36c-.123 0-.21.07-.228.192l-2.57 11.818c-.034.157.036.227.175.227h2.046c.122 0 .21-.052.227-.192l.315-1.696c0-.052.052-.07.105-.07H44.2c.052 0 .105.035.105.088l.28 1.678c.017.14.104.192.227.192zm-2.518-3.95.822-4.511c.017-.07.087-.07.105 0l.734 4.51c0 .053-.017.088-.07.088h-1.503c-.053 0-.105-.018-.088-.088zM48.484 42.377h2.01c.123 0 .21-.087.21-.21l-.017-6.52c0-.07.087-.07.104 0l2.256 6.555c.035.105.104.175.227.175h2.22c.122 0 .21-.087.21-.21V30.35a.202.202 0 0 0-.21-.21h-2.01a.202.202 0 0 0-.21.21v6.485c0 .07-.088.088-.105.018l-2.255-6.538c-.035-.105-.105-.175-.227-.175h-2.203a.202.202 0 0 0-.21.21v11.817c0 .123.087.21.21.21z" fill="#FA231D"/>
</svg>
