<svg width="201" height="201" viewBox="0 0 201 201" fill="none" xmlns="http://www.w3.org/2000/svg">
    <circle cx="100.429" cy="100.429" r="82" transform="rotate(-15 100.429 100.429)" fill="#FA231D"/>
    <path d="m85.387 101.79 2.55-.683c.17-.045.221-.196.133-.354l-3.635-5.745c-.032-.037-.028-.106.03-.145.933-1.024 1.26-2.524.81-4.203-.706-2.635-2.817-4.05-5.197-3.413l-4.292 1.15a.254.254 0 0 0-.187.323l3.855 14.387c.04.149.175.227.323.187l2.487-.667a.253.253 0 0 0 .186-.323l-1.554-5.801c-.017-.064.014-.118.078-.135l.722-.194c.064-.017.097.02.13.057l3.207 5.427a.31.31 0 0 0 .354.132zm-6.059-11.563.956-.257c.871-.233 1.676.303 2.006 1.536.319 1.19-.11 2.056-.98 2.29l-.957.256c-.064.017-.118-.014-.135-.078l-.968-3.612c-.017-.064.014-.118.078-.135zM93.959 86.033l-.553-2.061a.254.254 0 0 0-.323-.187l-7.289 1.953a.254.254 0 0 0-.187.324l3.85 14.365c.04.149.174.226.323.187l7.289-1.954a.254.254 0 0 0 .186-.323l-.552-2.061a.254.254 0 0 0-.323-.187l-4.441 1.19c-.064.017-.118-.014-.135-.078l-.906-3.378c-.017-.064.014-.118.078-.135l2.55-.683a.254.254 0 0 0 .187-.324l-.552-2.061a.254.254 0 0 0-.324-.187l-2.55.684c-.064.017-.117-.014-.135-.078l-.9-3.358c-.016-.063.015-.117.079-.135l4.44-1.19a.254.254 0 0 0 .188-.323zM105.614 96.37l2.55-.682c.17-.046.232-.154.138-.334L101.35 81.82c-.061-.143-.19-.2-.339-.16l-2.868.77c-.15.04-.233.153-.214.307l.725 15.203c.01.202.117.264.287.219l2.486-.666c.149-.04.238-.132.214-.308l-.17-2.164c-.017-.064.041-.102.105-.12l2.656-.71c.064-.018.139.007.156.071l.887 1.95c.066.163.19.199.339.159zm-4.347-3.982-.471-5.75c-.001-.09.084-.114.128-.034l2.361 5.243c.018.064.008.112-.056.13l-1.828.489c-.063.017-.133.013-.134-.078zM110.055 95.18l7.31-1.958a.254.254 0 0 0 .187-.323l-.553-2.061a.253.253 0 0 0-.323-.187l-4.463 1.196c-.063.017-.117-.014-.134-.078l-3.2-11.943a.255.255 0 0 0-.324-.187l-2.486.667a.255.255 0 0 0-.187.323l3.85 14.365a.253.253 0 0 0 .323.187zM57.414 132.062l2.486-.666a.255.255 0 0 0 .187-.324l-3.849-14.365a.255.255 0 0 0-.323-.187l-2.487.667a.254.254 0 0 0-.186.323l3.849 14.365c.04.149.174.227.323.187zM62.333 130.744l2.444-.655a.254.254 0 0 0 .186-.323l-2.145-7.921c-.023-.085.084-.113.128-.034l4.876 7.234c.077.116.185.179.334.139l2.698-.723a.255.255 0 0 0 .187-.324l-3.85-14.365a.255.255 0 0 0-.323-.187l-2.443.655a.255.255 0 0 0-.187.324l2.113 7.883c.022.085-.078.135-.122.056l-4.871-7.213c-.077-.116-.185-.179-.333-.139l-2.678.718a.254.254 0 0 0-.187.323l3.85 14.365c.04.149.174.227.323.187zM77.034 126.987c2.53-.678 3.829-2.711 3.174-5.155l-1.053-3.931a.254.254 0 0 0-.323-.187l-3.783 1.013a.255.255 0 0 0-.187.324l.507 1.891c.04.149.175.227.323.187l.935-.251c.064-.017.118.014.135.078l.456 1.7c.227.85-.108 1.555-.873 1.76-.743.199-1.386-.244-1.614-1.094l-1.936-7.225c-.227-.85.108-1.555.851-1.754.765-.205 1.408.238 1.636 1.088l.227.85c.04.149.175.226.324.187l2.486-.667a.254.254 0 0 0 .187-.323l-.217-.808c-.66-2.465-2.803-3.576-5.332-2.898-2.55.683-3.807 2.705-3.152 5.149l1.924 7.183c.655 2.444 2.755 3.566 5.305 2.883zM88.695 123.68l2.55-.683c.17-.046.22-.196.133-.354l-3.635-5.745c-.033-.037-.028-.107.03-.145.932-1.024 1.26-2.524.81-4.203-.707-2.635-2.817-4.051-5.197-3.413l-4.293 1.15a.254.254 0 0 0-.186.323l3.854 14.387c.04.149.175.226.324.187l2.486-.667a.254.254 0 0 0 .187-.323l-1.555-5.801c-.017-.064.014-.118.078-.135l.723-.194c.063-.017.096.02.129.057l3.207 5.427a.31.31 0 0 0 .355.132zm-6.06-11.563.957-.257c.871-.233 1.675.303 2.005 1.536.32 1.19-.11 2.056-.98 2.289l-.957.257c-.063.017-.117-.014-.134-.078l-.968-3.613c-.017-.063.014-.117.077-.134zM97.266 107.923l-.552-2.061a.254.254 0 0 0-.324-.187l-7.288 1.953a.254.254 0 0 0-.187.323l3.85 14.366c.039.148.174.226.322.186l7.289-1.953a.254.254 0 0 0 .187-.323l-.552-2.061a.255.255 0 0 0-.324-.187l-4.441 1.19c-.064.017-.118-.014-.135-.078l-.905-3.379c-.017-.063.014-.117.078-.134l2.55-.684a.253.253 0 0 0 .186-.323l-.552-2.061a.254.254 0 0 0-.323-.187l-2.55.683c-.064.018-.118-.014-.135-.077l-.9-3.358c-.017-.064.014-.118.078-.135l4.441-1.19a.254.254 0 0 0 .187-.323zM102.405 120.007l3.846-1.031c2.593-.695 3.833-2.781 3.167-5.267l-1.776-6.63c-.667-2.486-2.784-3.673-5.376-2.978l-3.847 1.03a.255.255 0 0 0-.186.324l3.849 14.365c.04.149.174.226.323.187zm2.024-3.412-2.551-9.521c-.017-.063.014-.117.078-.134l.935-.251c.829-.222 1.521.321 1.806 1.384l1.674 6.248c.257 1.047-.097 1.848-.857 2.074l-.95.277c-.064.017-.118-.014-.135-.077zM112.512 117.299l2.486-.667a.254.254 0 0 0 .187-.323l-3.85-14.365a.253.253 0 0 0-.323-.187l-2.486.666a.255.255 0 0 0-.187.324l3.849 14.365c.04.149.175.227.324.187zM121.588 101.406l-.553-2.061a.254.254 0 0 0-.323-.187l-7.289 1.953a.254.254 0 0 0-.186.323l3.849 14.366c.04.148.174.226.323.186l7.289-1.953a.254.254 0 0 0 .187-.323l-.553-2.061a.254.254 0 0 0-.323-.187l-4.441 1.19c-.064.017-.118-.014-.135-.078l-.905-3.379a.104.104 0 0 1 .077-.134l2.55-.684a.253.253 0 0 0 .187-.323l-.552-2.061a.255.255 0 0 0-.324-.187l-2.55.683c-.063.018-.117-.014-.134-.077l-.9-3.358c-.017-.064.014-.118.078-.135l4.441-1.19a.254.254 0 0 0 .187-.323zM126.748 113.484l2.444-.655a.254.254 0 0 0 .187-.323l-2.146-7.921c-.022-.085.084-.113.128-.034l4.877 7.234c.076.116.184.179.333.139l2.699-.723a.255.255 0 0 0 .186-.324l-3.849-14.365a.254.254 0 0 0-.323-.187l-2.444.655a.254.254 0 0 0-.187.323l2.113 7.884c.023.085-.078.135-.122.056l-4.871-7.213c-.077-.116-.184-.179-.333-.139l-2.678.718a.254.254 0 0 0-.186.323l3.849 14.365c.04.149.174.227.323.187zM141.647 93.549l-8.415 2.254a.254.254 0 0 0-.187.324l.552 2.061c.04.149.175.227.324.187l2.55-.684c.064-.017.117.014.135.078l3.2 11.943a.254.254 0 0 0 .323.187l2.486-.667a.253.253 0 0 0 .187-.323l-3.2-11.943c-.017-.063.014-.117.078-.134l2.656-.712a.255.255 0 0 0 .187-.323l-.553-2.062a.254.254 0 0 0-.323-.186zM151.284 107.092c2.443-.655 3.722-2.683 3.05-5.19-.569-2.126-2.01-2.742-4.653-3.764-1.783-.707-2.403-1.065-2.642-1.957-.239-.893.092-1.528.75-1.705.723-.193 1.365.25 1.599 1.12l.154.575a.253.253 0 0 0 .323.186l2.444-.654a.254.254 0 0 0 .186-.324l-.136-.51c-.655-2.444-2.751-3.636-5.259-2.964-2.422.65-3.664 2.645-3.015 5.067.661 2.465 2.739 3.252 4.613 3.957 1.73.675 2.472.978 2.717 1.891.222.829-.14 1.518-.82 1.701-.68.182-1.323-.261-1.562-1.153l-.142-.532a.255.255 0 0 0-.324-.186l-2.444.654a.255.255 0 0 0-.186.324l.182.68c.615 2.295 2.678 3.45 5.165 2.784z" fill="#F2EEE5"/>
</svg>
