<svg width="73" height="73" viewBox="0 0 73 73" fill="none" xmlns="http://www.w3.org/2000/svg">
    <path fill-rule="evenodd" clip-rule="evenodd" d="M36.155 70.721c19.09 0 34.566-15.476 34.566-34.566 0-19.09-15.476-34.566-34.566-34.566-19.09 0-34.566 15.476-34.566 34.566 0 19.09 15.476 34.566 34.566 34.566zm0 1.59c19.968 0 36.156-16.188 36.156-36.156S56.123 0 36.155 0 0 16.187 0 36.155s16.187 36.156 36.155 36.156z" fill="#FA231D"/>
    <path d="M15.479 33.517c2.08 0 3.496-1.294 3.496-3.304v-3.234a.202.202 0 0 0-.21-.21h-3.111a.202.202 0 0 0-.21.21v1.556c0 .122.087.21.21.21h.769c.052 0 .087.034.087.087v1.398c0 .7-.402 1.172-1.031 1.172-.612 0-1.014-.472-1.014-1.172v-5.943c0-.7.402-1.172 1.014-1.172.63 0 1.031.472 1.031 1.172v.699c0 .122.088.21.21.21h2.045c.123 0 .21-.088.21-.21v-.665c0-2.027-1.416-3.321-3.496-3.321C13.38 21 12 22.294 12 24.304v5.909c0 2.01 1.381 3.304 3.479 3.304zM20.494 33.377h6.014c.122 0 .21-.087.21-.21v-1.696a.202.202 0 0 0-.21-.21h-3.672c-.052 0-.087-.034-.087-.087V21.35a.202.202 0 0 0-.21-.21h-2.045a.202.202 0 0 0-.21.21v11.817c0 .123.087.21.21.21zM31.154 33.517c2.08 0 3.461-1.434 3.461-3.619V21.35a.202.202 0 0 0-.21-.21H32.36a.202.202 0 0 0-.21.21v8.793c0 .752-.402 1.259-.996 1.259-.612 0-1.014-.507-1.014-1.26V21.35a.202.202 0 0 0-.21-.21h-2.045a.202.202 0 0 0-.21.21v8.548c0 2.185 1.381 3.619 3.479 3.619zM42.876 21.14h-6.923a.202.202 0 0 0-.21.21v1.695c0 .123.087.21.21.21h2.097c.053 0 .088.035.088.088v9.824c0 .123.087.21.21.21h2.045c.123 0 .21-.087.21-.21v-9.825c0-.052.035-.087.087-.087h2.186c.122 0 .21-.087.21-.21V21.35a.202.202 0 0 0-.21-.21zM50.686 23.045V21.35a.202.202 0 0 0-.21-.21H44.48a.202.202 0 0 0-.21.21v11.817c0 .123.087.21.21.21h5.996c.122 0 .21-.087.21-.21v-1.696a.202.202 0 0 0-.21-.21h-3.654c-.052 0-.087-.034-.087-.087v-2.78c0-.052.035-.087.087-.087h2.098c.122 0 .21-.087.21-.21v-1.695a.202.202 0 0 0-.21-.21h-2.098c-.052 0-.087-.035-.087-.087v-2.762c0-.053.035-.088.087-.088h3.654c.122 0 .21-.087.21-.21zM52.163 33.377h2.01c.122 0 .21-.087.21-.21l-.018-6.52c0-.07.088-.07.105 0l2.255 6.555c.035.105.105.175.228.175h2.22c.122 0 .21-.087.21-.21V21.35a.202.202 0 0 0-.21-.21h-2.01a.202.202 0 0 0-.21.21v6.485c0 .07-.088.088-.105.018l-2.255-6.538c-.035-.105-.105-.175-.228-.175h-2.202a.202.202 0 0 0-.21.21v11.817c0 .123.087.21.21.21zM27.485 40.527v-1.696a.202.202 0 0 0-.21-.21h-5.979a.202.202 0 0 0-.21.21V50.65c0 .122.088.21.21.21h2.046c.122 0 .21-.088.21-.21v-4.773c0-.052.034-.087.087-.087h2.08c.122 0 .21-.087.21-.21v-1.696a.202.202 0 0 0-.21-.21h-2.08c-.053 0-.088-.034-.088-.087v-2.762c0-.052.035-.087.088-.087h3.636c.122 0 .21-.088.21-.21zM33.27 50.859h2.097c.14 0 .21-.105.175-.245l-1.608-5.157c-.018-.035 0-.088.052-.105.927-.594 1.486-1.678 1.486-3.06 0-2.167-1.329-3.688-3.287-3.688h-3.53a.202.202 0 0 0-.21.21v11.835c0 .122.087.21.21.21h2.044c.123 0 .21-.088.21-.21v-4.773c0-.052.035-.087.088-.087h.594c.052 0 .07.035.087.07l1.347 4.825a.247.247 0 0 0 .244.175zm-2.273-10.122h.786c.717 0 1.224.577 1.224 1.59 0 .98-.507 1.556-1.224 1.556h-.786c-.053 0-.088-.035-.088-.087v-2.972c0-.052.035-.087.088-.087zM43.089 40.527v-1.696a.202.202 0 0 0-.21-.21h-5.996a.202.202 0 0 0-.21.21V50.65c0 .122.087.21.21.21h5.996c.122 0 .21-.088.21-.21v-1.696a.202.202 0 0 0-.21-.21h-3.654c-.052 0-.087-.035-.087-.087v-2.78c0-.052.035-.087.087-.087h2.098c.123 0 .21-.087.21-.21v-1.696a.202.202 0 0 0-.21-.21h-2.098c-.052 0-.087-.034-.087-.087v-2.762c0-.052.035-.087.087-.087h3.654c.122 0 .21-.088.21-.21zM50.754 40.527v-1.696a.202.202 0 0 0-.21-.21h-5.996a.202.202 0 0 0-.21.21V50.65c0 .122.088.21.21.21h5.996c.123 0 .21-.088.21-.21v-1.696a.202.202 0 0 0-.21-.21h-3.653c-.053 0-.088-.035-.088-.087v-2.78c0-.052.035-.087.088-.087h2.098c.122 0 .21-.087.21-.21v-1.696a.202.202 0 0 0-.21-.21H46.89c-.053 0-.088-.034-.088-.087v-2.762c0-.052.035-.087.088-.087h3.653c.123 0 .21-.088.21-.21z" fill="#FA231D"/>
</svg>
