<svg width="73" height="73" viewBox="0 0 73 73" fill="none" xmlns="http://www.w3.org/2000/svg">
    <path fill-rule="evenodd" clip-rule="evenodd" d="M36.155 70.721c19.09 0 34.566-15.476 34.566-34.566 0-19.09-15.476-34.566-34.566-34.566-19.09 0-34.566 15.476-34.566 34.566 0 19.09 15.476 34.566 34.566 34.566zm0 1.59c19.968 0 36.156-16.188 36.156-36.156S56.123 0 36.155 0 0 16.187 0 36.155s16.187 36.156 36.155 36.156z" fill="#FA231D"/>
    <path d="M27.805 33.517c2.08 0 3.496-1.294 3.496-3.304v-3.234a.202.202 0 0 0-.21-.21H27.98a.202.202 0 0 0-.21.21v1.556c0 .122.088.21.21.21h.77c.052 0 .087.034.087.087v1.398c0 .7-.403 1.172-1.032 1.172-.612 0-1.014-.472-1.014-1.172v-5.943c0-.7.402-1.172 1.014-1.172.63 0 1.032.472 1.032 1.172v.699c0 .122.087.21.21.21h2.045c.122 0 .21-.088.21-.21v-.665c0-2.027-1.417-3.321-3.497-3.321-2.098 0-3.479 1.294-3.479 3.304v5.909c0 2.01 1.381 3.304 3.48 3.304zM32.785 33.377h2.045c.123 0 .21-.087.21-.21V25.58c0-.087.07-.087.105-.017l1.346 2.744c.053.105.087.158.123.158.035 0 .07-.053.122-.158l1.363-2.71c.035-.087.105-.07.105.018v7.552c0 .123.088.21.21.21h2.045c.123 0 .21-.087.21-.21V21.35a.202.202 0 0 0-.21-.21h-2.027c-.105 0-.193.035-.245.157l-1.521 3.27c-.035.07-.07.07-.105 0l-1.52-3.27c-.053-.122-.14-.157-.246-.157h-2.01a.202.202 0 0 0-.21.21v11.817c0 .123.088.21.21.21zM45.51 33.517c2.133 0 3.549-1.364 3.549-3.462v-5.594c0-2.097-1.416-3.461-3.55-3.461-2.132 0-3.53 1.364-3.53 3.461v5.595c0 2.097 1.398 3.46 3.53 3.46zm0-2.115c-.647 0-1.066-.507-1.066-1.242v-5.803c0-.735.42-1.242 1.066-1.242.664 0 1.084.507 1.084 1.242v5.803c0 .735-.42 1.242-1.084 1.242zM28.398 40.527v-1.696a.202.202 0 0 0-.21-.21H22.21a.202.202 0 0 0-.21.21V50.65c0 .122.087.21.21.21h2.045c.123 0 .21-.088.21-.21v-4.773c0-.052.035-.087.087-.087h2.08c.123 0 .21-.087.21-.21v-1.696a.202.202 0 0 0-.21-.21h-2.08c-.052 0-.087-.034-.087-.087v-2.762c0-.052.035-.087.087-.087h3.637c.122 0 .21-.088.21-.21zM34.183 50.859h2.098c.14 0 .21-.105.175-.245l-1.609-5.157c-.017-.035 0-.088.053-.105.926-.594 1.486-1.678 1.486-3.06 0-2.167-1.329-3.688-3.287-3.688h-3.531a.202.202 0 0 0-.21.21v11.835c0 .122.087.21.21.21h2.045c.122 0 .21-.088.21-.21v-4.773c0-.052.035-.087.087-.087h.595c.052 0 .07.035.087.07l1.346 4.825a.247.247 0 0 0 .245.175zM31.91 40.737h.787c.717 0 1.224.577 1.224 1.59 0 .98-.507 1.556-1.224 1.556h-.787c-.052 0-.087-.035-.087-.087v-2.972c0-.052.035-.087.087-.087zM44.002 40.527v-1.696a.202.202 0 0 0-.21-.21h-5.995a.202.202 0 0 0-.21.21V50.65c0 .122.087.21.21.21h5.996c.122 0 .21-.088.21-.21v-1.696a.202.202 0 0 0-.21-.21h-3.654c-.052 0-.087-.035-.087-.087v-2.78c0-.052.035-.087.087-.087h2.098c.122 0 .21-.087.21-.21v-1.696a.202.202 0 0 0-.21-.21h-2.098c-.052 0-.087-.034-.087-.087v-2.762c0-.052.035-.087.087-.087h3.654c.122 0 .21-.088.21-.21zM51.668 40.527v-1.696a.202.202 0 0 0-.21-.21h-5.996a.202.202 0 0 0-.21.21V50.65c0 .122.087.21.21.21h5.996c.122 0 .21-.088.21-.21v-1.696a.202.202 0 0 0-.21-.21h-3.654c-.052 0-.087-.035-.087-.087v-2.78c0-.052.035-.087.087-.087h2.098c.123 0 .21-.087.21-.21v-1.696a.202.202 0 0 0-.21-.21h-2.098c-.052 0-.087-.034-.087-.087v-2.762c0-.052.035-.087.087-.087h3.654c.122 0 .21-.088.21-.21z" fill="#FA231D"/>
</svg>
