<svg width="73" height="73" viewBox="0 0 73 73" fill="none" xmlns="http://www.w3.org/2000/svg">
    <path fill-rule="evenodd" clip-rule="evenodd" d="M36.155 70.721c19.09 0 34.566-15.476 34.566-34.566 0-19.09-15.476-34.566-34.566-34.566-19.09 0-34.566 15.476-34.566 34.566 0 19.09 15.476 34.566 34.566 34.566zm0 1.59c19.968 0 36.156-16.188 36.156-36.156S56.123 0 36.155 0 0 16.187 0 36.155s16.187 36.156 36.155 36.156z" fill="#FA231D"/>
    <path d="M14.825 33.377h2.098c.14 0 .21-.105.175-.245l-1.609-5.157c-.017-.035 0-.087.053-.105.926-.594 1.486-1.678 1.486-3.059 0-2.168-1.329-3.689-3.287-3.689H10.21a.202.202 0 0 0-.21.21v11.835c0 .123.087.21.21.21h2.045c.122 0 .21-.087.21-.21v-4.772c0-.053.035-.088.087-.088h.595c.052 0 .07.035.087.07l1.346 4.825a.247.247 0 0 0 .245.175zm-2.273-10.122h.787c.717 0 1.224.577 1.224 1.591 0 .979-.507 1.556-1.224 1.556h-.787c-.052 0-.087-.035-.087-.088v-2.971c0-.053.035-.088.087-.088zM24.644 23.045V21.35a.202.202 0 0 0-.21-.21H18.44a.202.202 0 0 0-.21.21v11.817c0 .123.087.21.21.21h5.996c.122 0 .21-.087.21-.21v-1.696a.202.202 0 0 0-.21-.21H20.78c-.052 0-.087-.034-.087-.087v-2.78c0-.052.035-.087.087-.087h2.098c.122 0 .21-.087.21-.21v-1.695a.202.202 0 0 0-.21-.21H20.78c-.052 0-.087-.035-.087-.087v-2.762c0-.053.035-.088.087-.088h3.654c.122 0 .21-.087.21-.21zM29.198 33.517c2.098 0 3.496-1.346 3.496-3.444v-.192c0-.123-.087-.193-.21-.193l-2.045-.087a.202.202 0 0 0-.21.21v.472c0 .664-.402 1.119-1.031 1.119-.612 0-1.014-.455-1.014-1.12v-6.03c0-.682.402-1.137 1.014-1.137.63 0 1.031.455 1.031 1.137v.454c0 .14.07.192.21.192l2.046-.087c.122 0 .21-.087.21-.21v-.192c0-2.098-1.4-3.409-3.497-3.409-2.08 0-3.479 1.311-3.479 3.409v5.664c0 2.098 1.399 3.444 3.479 3.444zM36.124 33.36h2.045c.123 0 .21-.088.21-.21v-4.545c0-.035 0-.053.017-.105l2.465-7.115c.053-.158-.035-.245-.174-.245h-2.15c-.123 0-.21.052-.245.175l-1.084 4.178c-.018.07-.088.07-.105 0l-1.084-4.178c-.035-.123-.122-.175-.245-.175h-2.15c-.14 0-.227.087-.175.245l2.448 7.115c.017.052.017.07.017.105v4.545c0 .122.087.21.21.21zM44.955 33.517c2.098 0 3.497-1.346 3.497-3.444v-.192c0-.123-.088-.193-.21-.193l-2.045-.087a.202.202 0 0 0-.21.21v.472c0 .664-.402 1.119-1.032 1.119-.611 0-1.014-.455-1.014-1.12v-6.03c0-.682.402-1.137 1.014-1.137.63 0 1.032.455 1.032 1.137v.454c0 .14.07.192.21.192l2.045-.087c.122 0 .21-.087.21-.21v-.192c0-2.098-1.399-3.409-3.497-3.409-2.08 0-3.478 1.311-3.478 3.409v5.664c0 2.098 1.398 3.444 3.478 3.444zM49.97 33.377h6.014c.122 0 .21-.087.21-.21v-1.696a.202.202 0 0 0-.21-.21h-3.671c-.053 0-.088-.034-.088-.087V21.35a.202.202 0 0 0-.21-.21H49.97a.202.202 0 0 0-.21.21v11.817c0 .123.088.21.21.21zM63.62 23.045V21.35a.202.202 0 0 0-.21-.21h-5.996a.202.202 0 0 0-.21.21v11.817c0 .123.087.21.21.21h5.996c.122 0 .21-.087.21-.21v-1.696a.202.202 0 0 0-.21-.21h-3.654c-.052 0-.087-.034-.087-.087v-2.78c0-.052.035-.087.087-.087h2.098c.122 0 .21-.087.21-.21v-1.695a.202.202 0 0 0-.21-.21h-2.098c-.052 0-.087-.035-.087-.087v-2.762c0-.053.035-.088.087-.088h3.654c.122 0 .21-.087.21-.21zM23.991 50.998c2.098 0 3.496-1.346 3.496-3.443v-.193c0-.122-.087-.192-.21-.192l-2.045-.087a.202.202 0 0 0-.21.21v.471c0 .665-.402 1.12-1.03 1.12-.613 0-1.015-.455-1.015-1.12v-6.03c0-.683.402-1.137 1.014-1.137.63 0 1.032.454 1.032 1.136v.455c0 .14.07.192.21.192l2.045-.087c.122 0 .21-.088.21-.21v-.192c0-2.098-1.4-3.41-3.497-3.41-2.08 0-3.479 1.312-3.479 3.41v5.664c0 2.097 1.399 3.444 3.48 3.444zM33.922 50.859h2.098c.14 0 .21-.07.175-.228l-2.552-11.817c-.018-.123-.105-.193-.227-.193h-2.36c-.123 0-.21.07-.228.193l-2.57 11.817c-.035.158.035.228.175.228h2.046c.122 0 .21-.053.227-.193l.314-1.695c0-.053.053-.07.105-.07h2.186c.052 0 .105.035.105.087l.28 1.678c.017.14.104.193.226.193zm-2.517-3.951.822-4.51c.017-.07.087-.07.105 0l.734 4.51c0 .052-.018.087-.07.087h-1.504c-.052 0-.104-.017-.087-.087zM37.594 50.859h2.01c.122 0 .21-.088.21-.21l-.018-6.52c0-.07.088-.07.105 0l2.255 6.555c.035.105.105.175.228.175h2.22c.122 0 .21-.088.21-.21V38.83a.202.202 0 0 0-.21-.21h-2.01a.202.202 0 0 0-.21.21v6.486c0 .07-.088.087-.105.017l-2.256-6.538c-.034-.105-.104-.175-.227-.175h-2.202a.202.202 0 0 0-.21.21V50.65c0 .122.087.21.21.21zM49.563 50.998c2.01 0 3.409-1.293 3.409-3.356 0-1.748-.98-2.517-2.797-3.846-1.224-.909-1.626-1.311-1.626-2.045s.384-1.154.926-1.154c.595 0 .997.472.997 1.189v.472c0 .122.087.21.21.21h2.01c.122 0 .21-.088.21-.21v-.42c0-2.01-1.364-3.356-3.427-3.356-1.992 0-3.356 1.276-3.356 3.269 0 2.028 1.433 3.059 2.727 3.986 1.189.874 1.696 1.258 1.696 2.01 0 .682-.42 1.136-.98 1.136-.559 0-.96-.472-.96-1.206v-.437a.202.202 0 0 0-.21-.21h-2.01a.202.202 0 0 0-.21.21v.56c0 1.887 1.345 3.199 3.39 3.199z" fill="#FA231D"/>
</svg>
